<?xml version="1.0" encoding="UTF-8" standalone="no"?><!DOCTYPE svg PUBLIC "-//W3C//DTD SVG 1.1//EN" "http://www.w3.org/Graphics/SVG/1.1/DTD/svg11.dtd"><svg width="100%" height="100%" viewBox="0 0 62 63" version="1.1" xmlns="http://www.w3.org/2000/svg" xmlns:xlink="http://www.w3.org/1999/xlink" xml:space="preserve" style="fill-rule:evenodd;clip-rule:evenodd;stroke-linejoin:round;stroke-miterlimit:1.41421;"><path id="Settings-Icon" d="M58.495,36.431l-5.725,0c-0.58,2.594 -1.617,4.994 -2.953,7.182l4.08,4.175c0.994,1.015 0.994,2.663 0,3.679l-3.596,3.68c-0.994,1.017 -2.604,1.017 -3.597,0l-4.058,-4.151c-2.14,1.385 -4.492,2.457 -7.041,3.051l0,5.805c0,1.436 -1.138,2.602 -2.543,2.602l-5.086,0c-1.405,0 -2.544,-1.166 -2.544,-2.602l0,-5.805c-2.549,-0.594 -4.9,-1.666 -7.04,-3.051l-4.058,4.151c-0.993,1.017 -2.604,1.017 -3.597,0l-3.596,-3.68c-0.994,-1.016 -0.994,-2.664 0,-3.679l4.08,-4.175c-1.337,-2.188 -2.374,-4.588 -2.953,-7.182l-5.725,0c-1.404,0 -2.543,-1.165 -2.543,-2.601l0,-5.206c0,-1.437 1.139,-2.601 2.543,-2.601l5.725,0c0.579,-2.593 1.616,-4.993 2.953,-7.181l-4.08,-4.175c-0.994,-1.017 -0.994,-2.664 0,-3.681l3.596,-3.68c0.993,-1.017 2.604,-1.017 3.597,0l4.058,4.151c2.14,-1.383 4.491,-2.456 7.04,-3.051l0,-5.803c0,-1.438 1.139,-2.603 2.544,-2.603l5.086,0c1.405,0 2.543,1.165 2.543,2.603l0,5.803c2.549,0.595 4.901,1.668 7.041,3.051l4.058,-4.151c0.993,-1.017 2.603,-1.017 3.597,0l3.596,3.68c0.994,1.017 0.994,2.664 0,3.681l-4.08,4.175c1.336,2.188 2.373,4.588 2.953,7.181l5.725,0c1.404,0 2.543,1.164 2.543,2.601l0,5.206c0,1.436 -1.139,2.601 -2.543,2.601Zm-27.976,-20.817c-8.428,0 -15.26,6.99 -15.26,15.612c0,8.625 6.832,15.614 15.26,15.614c8.428,0 15.259,-6.989 15.259,-15.614c0,-8.622 -6.831,-15.612 -15.259,-15.612Zm0,23.42c-4.214,0 -7.63,-3.496 -7.63,-7.808c0,-4.311 3.416,-7.807 7.63,-7.807c4.214,0 7.629,3.496 7.629,7.807c0,4.312 -3.415,7.808 -7.629,7.808Z" style="fill:#fff;"/></svg>