<?xml version="1.0" encoding="UTF-8" standalone="no"?>
<!DOCTYPE svg PUBLIC "-//W3C//DTD SVG 1.1//EN" "http://www.w3.org/Graphics/SVG/1.1/DTD/svg11.dtd">
<svg width="100%" height="100%" viewBox="0 0 32 32" version="1.1" xmlns="http://www.w3.org/2000/svg" xmlns:xlink="http://www.w3.org/1999/xlink" xml:space="preserve" style="fill-rule:evenodd;clip-rule:evenodd;stroke-linejoin:round;stroke-miterlimit:1.41421;">
    <g transform="matrix(1,0,0,1,-3763.42,-278.529)">
        <g transform="matrix(1,0,0,1,-5412.98,0)">
            <g transform="matrix(1,0,0,1,9176.41,278.134)">
                <path d="M16,0.395C7.164,0.395 0,7.558 0,16.395C0,23.464 4.585,29.462 10.942,31.577C11.742,31.725 12.036,31.23 12.036,30.807C12.036,30.426 12.021,29.165 12.014,27.828C7.562,28.796 6.623,25.94 6.623,25.94C5.895,24.091 4.847,23.599 4.847,23.599C3.395,22.606 4.957,22.626 4.957,22.626C6.563,22.739 7.409,24.275 7.409,24.275C8.836,26.721 11.152,26.014 12.065,25.605C12.208,24.571 12.623,23.865 13.081,23.465C9.527,23.061 5.791,21.688 5.791,15.558C5.791,13.811 6.416,12.384 7.44,11.263C7.274,10.86 6.726,9.233 7.595,7.029C7.595,7.029 8.939,6.599 11.996,8.669C13.272,8.314 14.641,8.137 16.001,8.13C17.36,8.136 18.73,8.314 20.009,8.669C23.063,6.599 24.404,7.029 24.404,7.029C25.275,9.233 24.727,10.86 24.561,11.263C25.587,12.383 26.208,13.811 26.208,15.558C26.208,21.703 22.465,23.056 18.902,23.453C19.476,23.95 19.987,24.923 19.987,26.416C19.987,28.557 19.968,30.28 19.968,30.807C19.968,31.233 20.256,31.732 21.067,31.575C27.421,29.457 32,23.462 32,16.395C32,7.558 24.836,0.395 16,0.395L16,0.395Z" style="fill:rgb(169,169,169);fill-rule:nonzero;"/>
            </g>
        </g>
    </g>
</svg>
