<?xml version="1.0" encoding="UTF-8" standalone="no"?><!DOCTYPE svg PUBLIC "-//W3C//DTD SVG 1.1//EN" "http://www.w3.org/Graphics/SVG/1.1/DTD/svg11.dtd"><svg width="100%" height="100%" viewBox="0 0 131 131" version="1.1" xmlns="http://www.w3.org/2000/svg" xmlns:xlink="http://www.w3.org/1999/xlink" xml:space="preserve" style="fill-rule:evenodd;clip-rule:evenodd;stroke-linecap:round;stroke-linejoin:round;stroke-miterlimit:1.5;"><g><rect x="0.5" y="0.5" width="130" height="130" style="fill:#fff;stroke:#999;stroke-width:1px;"/></g><path id="Photo-Icon" d="M107.241,113.204l-83.482,0c-3.293,0 -5.963,-2.672 -5.963,-5.962l0,-83.484c0,-3.291 2.67,-5.962 5.963,-5.962l83.482,0c3.293,0 5.963,2.671 5.963,5.962l0,83.484c0,3.29 -2.67,5.962 -5.963,5.962Zm-1.988,-87.458l-79.506,0l0,63.606l79.506,0l0,-63.606Zm-61.617,7.951c5.488,0 9.938,4.45 9.938,9.938c0,5.492 -4.45,9.94 -9.938,9.94c-5.489,0 -9.938,-4.448 -9.938,-9.94c0,-5.488 4.449,-9.938 9.938,-9.938Zm17.077,36.022l14.725,-24.096l21.864,35.778l-27.827,0l-15.901,0l-19.876,0l17.888,-23.851l9.127,12.169Z" style="fill:#adb9c9;"/></svg>