<?xml version="1.0" encoding="UTF-8" standalone="no"?><!DOCTYPE svg PUBLIC "-//W3C//DTD SVG 1.1//EN" "http://www.w3.org/Graphics/SVG/1.1/DTD/svg11.dtd"><svg width="100%" height="100%" viewBox="0 0 32 32" version="1.1" xmlns="http://www.w3.org/2000/svg" xmlns:xlink="http://www.w3.org/1999/xlink" xml:space="preserve" style="fill-rule:evenodd;clip-rule:evenodd;stroke-linejoin:round;stroke-miterlimit:1.41421;"><path d="M29,0l-26,0c-1.65,0 -3,1.35 -3,3l0,26c0,1.65 1.35,3 3,3l26,0c1.65,0 3,-1.35 3,-3l0,-26c0,-1.65 -1.35,-3 -3,-3Zm-17,26l-4,0l0,-14l4,0l0,14Zm-2,-16c-1.106,0 -2,-0.894 -2,-2c0,-1.106 0.894,-2 2,-2c1.106,0 2,0.894 2,2c0,1.106 -0.894,2 -2,2Zm16,16l-4,0l0,-8c0,-1.106 -0.894,-2 -2,-2c-1.106,0 -2,0.894 -2,2l0,8l-4,0l0,-14l4,0l0,2.481c0.825,-1.131 2.087,-2.481 3.5,-2.481c2.488,0 4.5,2.238 4.5,5l0,9Z" style="fill:#8393a7;fill-rule:nonzero;"/></svg>