<?xml version="1.0" encoding="UTF-8" standalone="no"?><!DOCTYPE svg PUBLIC "-//W3C//DTD SVG 1.1//EN" "http://www.w3.org/Graphics/SVG/1.1/DTD/svg11.dtd"><svg width="100%" height="100%" viewBox="0 0 17 14" version="1.1" xmlns="http://www.w3.org/2000/svg" xmlns:xlink="http://www.w3.org/1999/xlink" xml:space="preserve" style="fill-rule:evenodd;clip-rule:evenodd;stroke-linejoin:round;stroke-miterlimit:1.41421;"><path id="Arrow-Right-Icon" d="M1,7.996l11.579,0l-4.274,4.27c-0.395,0.395 -0.395,1.036 0,1.431c0.396,0.395 1.037,0.395 1.432,0l5.968,-5.964c0.203,-0.203 0.3,-0.47 0.295,-0.735c0,-0.001 0,-0.001 0,-0.001c0,-0.001 0,-0.001 0,-0.001c0.005,-0.266 -0.092,-0.533 -0.295,-0.736l-5.968,-5.964c-0.395,-0.395 -1.036,-0.395 -1.432,0c-0.395,0.395 -0.395,1.036 0,1.431l4.274,4.27l-11.579,0c-0.552,0 -1,0.448 -1,1c0,0.551 0.448,0.999 1,0.999Z" style="fill:#53657d;"/></svg>