<?xml version="1.0" encoding="UTF-8" standalone="no"?>
<!DOCTYPE svg PUBLIC "-//W3C//DTD SVG 1.1//EN" "http://www.w3.org/Graphics/SVG/1.1/DTD/svg11.dtd">
<svg width="100%" height="100%" viewBox="0 0 31 33" version="1.1" xmlns="http://www.w3.org/2000/svg" xmlns:xlink="http://www.w3.org/1999/xlink" xml:space="preserve" style="fill-rule:evenodd;clip-rule:evenodd;stroke-linejoin:round;stroke-miterlimit:1.41421;">
    <g transform="matrix(1,0,0,1,-7169.79,-398.105)">
        <g id="Profile" transform="matrix(1.33333,0,0,1.33333,5763.12,-3516.56)">
            <path d="M1076.5,2960L1058.5,2960C1057.67,2960 1057,2959.33 1057,2958.5L1057,2956L1058,2956C1059.11,2956 1060,2955.11 1060,2954C1060,2952.89 1059.11,2952 1058,2952L1057,2952L1057,2950L1058,2950C1059.11,2950 1060,2949.11 1060,2948C1060,2946.9 1059.11,2946 1058,2946L1057,2946L1057,2944L1058,2944C1059.11,2944 1060,2943.11 1060,2942C1060,2940.9 1059.11,2940 1058,2940L1057,2940L1057,2937.5C1057,2936.67 1057.67,2936 1058.5,2936L1076.5,2936C1077.33,2936 1078,2936.67 1078,2937.5L1078,2958.5C1078,2959.33 1077.33,2960 1076.5,2960ZM1069,2942C1067.25,2942 1066,2943.42 1066,2945.53C1066,2947.8 1067.34,2950 1069,2950C1070.66,2950 1072,2947.8 1072,2945.53C1072,2943.42 1070.75,2942 1069,2942ZM1071.9,2949.16C1071.17,2950.26 1070.15,2951 1069,2951C1067.85,2951 1066.83,2950.26 1066.1,2949.16C1064.3,2949.97 1063,2951.37 1063,2952.38C1063,2953.14 1063.73,2953.6 1065,2953.81C1065.91,2953.96 1066.97,2954 1069,2954C1071.03,2954 1072.09,2953.96 1073,2953.81C1074.27,2953.6 1075,2953.14 1075,2952.38C1075,2951.37 1073.7,2949.97 1071.9,2949.16ZM1059,2942C1059,2942.55 1058.55,2943 1058,2943L1056,2943C1055.45,2943 1055,2942.55 1055,2942C1055,2941.45 1055.45,2941 1056,2941L1058,2941C1058.55,2941 1059,2941.45 1059,2942ZM1056,2947L1058,2947C1058.55,2947 1059,2947.45 1059,2948C1059,2948.55 1058.55,2949 1058,2949L1056,2949C1055.45,2949 1055,2948.55 1055,2948C1055,2947.45 1055.45,2947 1056,2947ZM1056,2953L1058,2953C1058.55,2953 1059,2953.45 1059,2954C1059,2954.55 1058.55,2955 1058,2955L1056,2955C1055.45,2955 1055,2954.55 1055,2954C1055,2953.45 1055.45,2953 1056,2953Z" style="fill:white;"/>
        </g>
    </g>
</svg>
