<?xml version="1.0" encoding="UTF-8" standalone="no"?><!DOCTYPE svg PUBLIC "-//W3C//DTD SVG 1.1//EN" "http://www.w3.org/Graphics/SVG/1.1/DTD/svg11.dtd"><svg width="100%" height="100%" viewBox="0 0 32 32" version="1.1" xmlns="http://www.w3.org/2000/svg" xmlns:xlink="http://www.w3.org/1999/xlink" xml:space="preserve" style="fill-rule:evenodd;clip-rule:evenodd;stroke-linejoin:round;stroke-miterlimit:1.41421;"><circle id="Google.2b." cx="16" cy="16" r="16" style="fill:#8393a7;"/><clipPath id="_clip1"><circle cx="16" cy="16" r="16"/></clipPath><g clip-path="url(#_clip1)"><path id="Google.2b.-Icon" d="M24,15.839l-2.154,0l0,2.201l-1.231,0l0,-2.201l-2.102,0l0,-1.29l2.102,0l0,-2.254l1.231,0l0,2.254l2.154,0l0,1.29Zm-8.755,-7.082c0.125,0.082 0.266,0.202 0.423,0.359c0.151,0.164 0.298,0.366 0.443,0.605c0.138,0.225 0.26,0.492 0.367,0.799c0.088,0.307 0.132,0.667 0.132,1.077c-0.012,0.751 -0.17,1.352 -0.474,1.804c-0.149,0.219 -0.307,0.42 -0.473,0.604c-0.185,0.185 -0.381,0.373 -0.59,0.564c-0.119,0.131 -0.229,0.277 -0.33,0.44c-0.119,0.172 -0.179,0.371 -0.179,0.596c0,0.218 0.061,0.399 0.183,0.542c0.104,0.138 0.205,0.257 0.303,0.36l0.678,0.584c0.421,0.362 0.791,0.762 1.109,1.199c0.299,0.445 0.455,1.026 0.467,1.743c0,1.018 -0.428,1.92 -1.283,2.706c-0.887,0.813 -2.167,1.234 -3.84,1.261c-1.4,-0.014 -2.445,-0.327 -3.136,-0.942c-0.697,-0.572 -1.045,-1.258 -1.045,-2.056c0,-0.389 0.113,-0.822 0.34,-1.3c0.22,-0.477 0.618,-0.896 1.194,-1.257c0.648,-0.389 1.328,-0.649 2.041,-0.778c0.705,-0.11 1.291,-0.171 1.758,-0.184c-0.144,-0.2 -0.273,-0.413 -0.385,-0.639c-0.132,-0.22 -0.198,-0.485 -0.198,-0.794c0,-0.186 0.025,-0.34 0.075,-0.464c0.044,-0.131 0.085,-0.25 0.123,-0.361c-0.228,0.027 -0.442,0.041 -0.643,0.041c-1.064,-0.014 -1.875,-0.365 -2.433,-1.055c-0.584,-0.643 -0.876,-1.391 -0.876,-2.245c0,-1.032 0.414,-1.967 1.241,-2.808c0.569,-0.492 1.159,-0.813 1.772,-0.964c0.606,-0.129 1.175,-0.194 1.705,-0.194l3.998,0l-1.235,0.757l-1.232,0Zm-2.599,9.339c-0.413,0.061 -0.837,0.162 -1.269,0.298c-0.102,0.04 -0.246,0.102 -0.43,0.184c-0.185,0.089 -0.372,0.216 -0.563,0.38c-0.185,0.171 -0.341,0.383 -0.468,0.636c-0.147,0.266 -0.22,0.587 -0.22,0.964c0,0.737 0.318,1.345 0.955,1.824c0.605,0.479 1.432,0.725 2.482,0.739c0.942,-0.014 1.662,-0.233 2.158,-0.657c0.484,-0.416 0.726,-0.954 0.726,-1.61c0,-0.533 -0.166,-0.998 -0.497,-1.394c-0.35,-0.376 -0.897,-0.837 -1.642,-1.383c-0.127,-0.015 -0.277,-0.021 -0.449,-0.021c-0.102,-0.015 -0.362,0 -0.783,0.04Zm1.664,-8.034c-0.189,-0.405 -0.438,-0.733 -0.746,-0.987c-0.316,-0.239 -0.678,-0.366 -1.087,-0.379c-0.542,0.013 -0.992,0.243 -1.351,0.687c-0.303,0.467 -0.448,0.987 -0.435,1.562c0,0.76 0.211,1.552 0.635,2.372c0.204,0.384 0.469,0.71 0.793,0.976c0.324,0.267 0.694,0.401 1.11,0.401c0.527,-0.021 0.965,-0.219 1.316,-0.595c0.169,-0.268 0.278,-0.541 0.326,-0.823c0.029,-0.28 0.044,-0.516 0.044,-0.709c0,-0.827 -0.202,-1.663 -0.605,-2.505Z" style="fill:#fff;"/></g></svg>