<?xml version="1.0" encoding="UTF-8" standalone="no"?><!DOCTYPE svg PUBLIC "-//W3C//DTD SVG 1.1//EN" "http://www.w3.org/Graphics/SVG/1.1/DTD/svg11.dtd"><svg width="100%" height="100%" viewBox="0 0 32 32" version="1.1" xmlns="http://www.w3.org/2000/svg" xmlns:xlink="http://www.w3.org/1999/xlink" xml:space="preserve" style="fill-rule:evenodd;clip-rule:evenodd;stroke-linejoin:round;stroke-miterlimit:1.41421;"><circle id="Pinterest" cx="16" cy="16" r="16" style="fill:#8393a7;"/><clipPath id="_clip1"><circle cx="16" cy="16" r="16"/></clipPath><g clip-path="url(#_clip1)"><path id="Pinterest-Icon" d="M16.423,7.999c-4.935,0 -7.423,3.131 -7.423,5.742c0,1.581 0.676,2.987 2.127,3.512c0.238,0.086 0.451,0.003 0.52,-0.23c0.048,-0.162 0.162,-0.568 0.212,-0.738c0.07,-0.231 0.043,-0.312 -0.149,-0.513c-0.419,-0.436 -0.686,-1.001 -0.686,-1.802c0,-2.323 1.964,-4.401 5.114,-4.401c2.789,0 4.322,1.507 4.322,3.521c0,2.651 -1.326,4.887 -3.293,4.887c-1.087,0 -1.9,-0.795 -1.639,-1.77c0.312,-1.165 0.916,-2.421 0.916,-3.261c0,-0.753 -0.456,-1.381 -1.4,-1.381c-1.111,0 -2.003,1.017 -2.003,2.379c0,0.867 0.331,1.454 0.331,1.454c0,0 -1.137,4.263 -1.336,5.009c-0.397,1.486 -0.06,3.309 -0.031,3.493c0.016,0.109 0.175,0.135 0.247,0.053c0.102,-0.119 1.425,-1.564 1.875,-3.008c0.127,-0.409 0.73,-2.527 0.73,-2.527c0.361,0.609 1.416,1.146 2.537,1.146c3.339,0 5.605,-2.694 5.605,-6.299c0,-2.727 -2.61,-5.266 -6.576,-5.266Z" style="fill:#fff;fill-rule:nonzero;"/></g></svg>